<svg version="1.1" id="Layer_1" xmlns="http://www.w3.org/2000/svg" xmlns:xlink="http://www.w3.org/1999/xlink" x="0px" y="0px"
	 width="100%" viewBox="0 0 4600 3097" enable-background="new 0 0 4600 3097" xml:space="preserve">
<path fill="#FFFFFF" opacity="1.000000" stroke="none" 
	d="
M3542.000000,2.000001 
	C3895.311523,2.000000 4248.623047,2.000000 4601.967285,2.000000 
	C4601.967285,1034.581177 4601.967285,2067.162354 4601.967285,3099.871826 
	C3068.846680,3099.871826 1535.693237,3099.871826 2.269884,3099.871826 
	C2.269884,2067.576904 2.269884,1035.153809 2.269884,2.000000 
	C387.398499,2.000000 772.797424,2.000000 1159.091309,2.937292 
	C1159.986084,620.954468 1159.986084,1238.034302 1159.986084,1855.114258 
	C1160.685547,1855.352661 1161.385010,1855.591064 1162.084473,1855.829590 
	C1558.638672,1433.000122 1955.192871,1010.170837 2352.262451,586.791809 
	C2484.931885,725.422791 2616.598389,863.121704 2748.396729,1000.693970 
	C2880.451172,1138.533081 3012.675049,1276.209961 3144.755615,1414.024048 
	C3276.433105,1551.417847 3407.904053,1689.010010 3539.556885,1826.427246 
	C3540.262451,1826.105835 3540.968262,1825.784546 3541.673828,1825.463257 
	C3541.673828,1821.271606 3541.673828,1817.079956 3541.673828,1812.888306 
	C3541.673828,1213.584595 3541.672852,614.280823 3541.687256,14.977087 
	C3541.687256,10.651390 3541.891357,6.325698 3542.000000,2.000001 
M2553.000000,1859.789795 
	C2782.411865,1859.789795 3011.823975,1859.789795 3243.404053,1859.789795 
	C2945.436523,1545.103638 2649.086914,1232.126343 2352.174316,918.554565 
	C2059.263428,1232.317383 1767.157471,1545.217896 1473.491455,1859.789673 
	C1834.151733,1859.789673 2192.575928,1859.789673 2553.000000,1859.789795 
M2743.025146,2473.000244 
	C2743.025146,2387.346191 2742.970947,2301.692383 2743.067383,2216.038330 
	C2743.088379,2197.289551 2741.214600,2178.864990 2736.244385,2160.737793 
	C2726.532715,2125.317871 2705.037598,2100.270508 2670.985352,2086.330322 
	C2646.187744,2076.178467 2620.026367,2074.099854 2593.593262,2074.097656 
	C2384.625732,2074.081055 2175.657959,2074.086182 1966.690308,2074.108398 
	C1964.137695,2074.108643 1961.585205,2074.419922 1958.975098,2074.589844 
	C1958.975098,2360.041992 1958.975098,2644.792969 1958.975098,2930.093506 
	C1963.578979,2930.093506 1967.545410,2930.093506 1971.511719,2930.093506 
	C2183.145752,2930.093506 2394.779541,2930.060303 2606.413574,2930.150391 
	C2625.244873,2930.158447 2643.572754,2927.497803 2661.489014,2921.889404 
	C2695.356201,2911.287842 2719.324219,2889.826904 2732.177246,2856.548828 
	C2739.942139,2836.444580 2742.991211,2815.414062 2743.001709,2793.951172 
	C2743.053223,2687.634277 2743.024902,2581.317383 2743.025146,2473.000244 
M677.650940,2583.363037 
	C677.650940,2698.821533 677.650940,2814.280029 677.650940,2929.620850 
	C749.666809,2929.620850 820.202515,2929.620850 891.125000,2929.620850 
	C891.125000,2644.401611 891.125000,2359.655762 891.125000,2074.683838 
	C819.787720,2074.683838 748.999939,2074.683838 677.331482,2074.683838 
	C677.331482,2193.437744 677.331482,2311.597900 677.331482,2429.814941 
	C557.996033,2429.814941 439.544556,2429.814941 320.148529,2429.814941 
	C320.148529,2311.029541 320.148529,2192.910400 320.148529,2074.777832 
	C248.436005,2074.777832 177.672607,2074.777832 107.047783,2074.777832 
	C107.047783,2360.212646 107.047783,2644.956299 107.047783,2929.666260 
	C178.326904,2929.666260 248.883362,2929.666260 320.358002,2929.666260 
	C320.358002,2811.116943 320.358002,2692.990479 320.358002,2574.328369 
	C439.724457,2574.328369 558.171265,2574.328369 677.185303,2574.328369 
	C677.355347,2576.938965 677.502319,2579.195557 677.650940,2583.363037 
M3513.000000,2787.778076 
	C3375.108398,2787.778076 3237.217041,2787.778076 3098.950195,2787.778076 
	C3098.950195,2596.949219 3098.950195,2407.182129 3098.950195,2216.488281 
	C3289.075439,2216.488281 3478.583984,2216.488281 3668.548096,2216.488281 
	C3668.548096,2168.701172 3668.548096,2121.841309 3668.548096,2074.088135 
	C3664.815430,2074.088135 3661.571777,2074.088135 3658.328125,2074.088135 
	C3450.668701,2074.088135 3243.009521,2073.995117 3035.350342,2074.261719 
	C3018.453125,2074.283203 3001.351074,2075.541260 2984.710449,2078.375732 
	C2957.138184,2083.072266 2932.793701,2094.877197 2914.205078,2116.673828 
	C2901.344971,2131.753418 2894.609375,2149.713135 2889.751953,2168.577637 
	C2884.801514,2187.803467 2884.451172,2207.492920 2884.430420,2227.103027 
	C2884.263184,2386.764160 2884.303955,2546.425049 2884.364258,2706.086182 
	C2884.375977,2736.738525 2884.613770,2767.392578 2885.010986,2798.042480 
	C2885.236084,2815.430176 2887.973389,2832.443604 2893.366211,2849.066895 
	C2903.572510,2880.527344 2922.672363,2903.945068 2953.542725,2917.021973 
	C2973.715820,2925.567627 2994.774902,2930.054199 3016.666748,2930.059814 
	C3231.325928,2930.114502 3445.985107,2930.094971 3660.644287,2930.071777 
	C3663.197510,2930.071533 3665.750732,2929.752197 3668.473389,2929.570557 
	C3668.473389,2882.127197 3668.473389,2835.275146 3668.473389,2787.778076 
	C3616.935791,2787.778076 3565.967773,2787.778076 3513.000000,2787.778076 
M1697.000000,2930.092773 
	C1736.905273,2930.092773 1776.810669,2930.092773 1817.186279,2930.092773 
	C1817.186279,2882.376709 1817.186279,2835.576416 1817.186279,2787.761719 
	C1626.927490,2787.761719 1437.152710,2787.761719 1246.924805,2787.761719 
	C1246.924805,2596.995850 1246.924805,2407.244873 1246.924805,2216.421387 
	C1437.265259,2216.421387 1627.031372,2216.421387 1817.138672,2216.421387 
	C1817.138672,2168.544678 1817.138672,2121.741943 1817.138672,2074.088623 
	C1814.021851,2074.088623 1811.433838,2074.088623 1808.845825,2074.088623 
	C1599.879395,2074.089600 1390.913086,2074.059326 1181.946655,2074.137207 
	C1159.945312,2074.145508 1138.119751,2075.624512 1116.808472,2082.167480 
	C1076.955444,2094.402832 1051.671021,2120.445557 1039.889648,2160.334473 
	C1033.668823,2181.396240 1032.457642,2202.946289 1032.437012,2224.556885 
	C1032.259766,2409.860352 1032.263550,2595.164062 1032.431030,2780.467529 
	C1032.450806,2802.418213 1033.541260,2824.360840 1040.206543,2845.633789 
	C1050.483643,2878.433594 1069.378418,2903.667480 1101.935669,2917.129639 
	C1123.103516,2925.882568 1145.120483,2930.149658 1168.084839,2930.138672 
	C1343.723267,2930.054932 1519.361572,2930.092773 1697.000000,2930.092773 
M3921.560791,2076.098633 
	C3912.484863,2078.156250 3903.235352,2079.647705 3894.364014,2082.371826 
	C3859.898926,2092.954590 3835.112061,2114.120850 3821.918213,2148.427002 
	C3812.515625,2172.875732 3810.425537,2198.291260 3810.409668,2223.960449 
	C3810.265869,2456.572266 3810.323975,2689.184082 3810.349121,2921.795898 
	C3810.349365,2924.354004 3810.700439,2926.912354 3810.887939,2929.472168 
	C3882.296143,2929.472168 3953.090820,2929.472168 4024.758789,2929.472168 
	C4024.758789,2810.710205 4024.758789,2692.567627 4024.758789,2573.367188 
	C4167.724121,2573.367188 4309.815430,2573.367188 4451.824707,2573.367188 
	C4453.788086,2545.461914 4452.873535,2438.323975 4450.449219,2430.169434 
	C4308.877930,2430.169434 4167.061035,2430.169434 4025.361816,2430.169434 
	C4023.436768,2416.282715 4023.982422,2224.174561 4026.094971,2216.243164 
	C4215.303711,2216.243164 4404.759277,2216.243164 4594.486328,2216.243164 
	C4594.486328,2168.474854 4594.486328,2121.624512 4594.486328,2074.087158 
	C4589.987305,2074.087158 4586.040039,2074.087158 4582.092773,2074.087158 
	C4381.140137,2074.087158 4180.187500,2074.035645 3979.235107,2074.172852 
	C3960.609131,2074.185547 3941.983887,2075.398438 3921.560791,2076.098633 
M1383.000000,2566.020508 
	C1496.143433,2566.020508 1609.286865,2566.020508 1722.621582,2566.020508 
	C1722.621582,2516.752441 1722.621582,2468.876221 1722.621582,2420.501465 
	C1578.387939,2420.501465 1434.619019,2420.501465 1290.580078,2420.501465 
	C1290.580078,2469.123047 1290.580078,2517.222168 1290.580078,2566.020508 
	C1321.125000,2566.020508 1351.062500,2566.020508 1383.000000,2566.020508 
M3493.000000,2566.019775 
	C3524.229980,2566.019775 3555.459961,2566.019775 3587.134766,2566.019775 
	C3587.134766,2517.004395 3587.134766,2468.904053 3587.134766,2420.435059 
	C3442.846436,2420.435059 3299.085938,2420.435059 3154.867676,2420.435059 
	C3154.867676,2468.986328 3154.867676,2517.086182 3154.867676,2566.019775 
	C3267.268799,2566.019775 3379.134521,2566.019775 3493.000000,2566.019775 
z"/>
<path fill="#D80100" opacity="1.000000" stroke="none" 
	d="
M3541.062744,2.000001 
	C3541.891357,6.325698 3541.687256,10.651390 3541.687256,14.977087 
	C3541.672852,614.280823 3541.673828,1213.584595 3541.673828,1812.888306 
	C3541.673828,1817.079956 3541.673828,1821.271606 3541.673828,1825.463257 
	C3540.968262,1825.784546 3540.262451,1826.105835 3539.556885,1826.427246 
	C3407.904053,1689.010010 3276.433105,1551.417847 3144.755615,1414.024048 
	C3012.675049,1276.209961 2880.451172,1138.533081 2748.396729,1000.693970 
	C2616.598389,863.121704 2484.931885,725.422791 2352.262451,586.791809 
	C1955.192871,1010.170837 1558.638672,1433.000122 1162.084473,1855.829590 
	C1161.385010,1855.591064 1160.685547,1855.352661 1159.986084,1855.114258 
	C1159.986084,1238.034302 1159.986084,620.954468 1159.993042,2.937292 
	C1953.375122,2.000000 2746.750244,2.000000 3541.062744,2.000001 
z"/>
<path fill="#2E2E2E" opacity="1.000000" stroke="none" 
	d="
M2552.000000,1859.789795 
	C2192.575928,1859.789673 1834.151733,1859.789673 1473.491455,1859.789673 
	C1767.157471,1545.217896 2059.263428,1232.317383 2352.174316,918.554565 
	C2649.086914,1232.126343 2945.436523,1545.103638 3243.404053,1859.789795 
	C3011.823975,1859.789795 2782.411865,1859.789795 2552.000000,1859.789795 
z"/>
<path fill="#2F2E2E" opacity="1.000000" stroke="none" 
	d="
M2743.024902,2474.000488 
	C2743.024902,2581.317383 2743.053223,2687.634277 2743.001709,2793.951172 
	C2742.991211,2815.414062 2739.942139,2836.444580 2732.177246,2856.548828 
	C2719.324219,2889.826904 2695.356201,2911.287842 2661.489014,2921.889404 
	C2643.572754,2927.497803 2625.244873,2930.158447 2606.413574,2930.150391 
	C2394.779541,2930.060303 2183.145752,2930.093506 1971.511719,2930.093506 
	C1967.545410,2930.093506 1963.578979,2930.093506 1958.975098,2930.093506 
	C1958.975098,2644.792969 1958.975098,2360.041992 1958.975098,2074.589844 
	C1961.585205,2074.419922 1964.137695,2074.108643 1966.690308,2074.108398 
	C2175.657959,2074.086182 2384.625732,2074.081055 2593.593262,2074.097656 
	C2620.026367,2074.099854 2646.187744,2076.178467 2670.985352,2086.330322 
	C2705.037598,2100.270508 2726.532715,2125.317871 2736.244385,2160.737793 
	C2741.214600,2178.864990 2743.088379,2197.289551 2743.067383,2216.038330 
	C2742.970947,2301.692383 2743.025146,2387.346191 2743.024902,2474.000488 
M2528.944824,2267.000244 
	C2528.944824,2250.458496 2528.944824,2233.916504 2528.944824,2217.104736 
	C2409.494629,2217.104736 2291.374512,2217.104736 2172.956055,2217.104736 
	C2172.956055,2407.459961 2172.956055,2597.206299 2172.956055,2787.228027 
	C2291.720459,2787.228027 2409.864990,2787.228027 2528.945068,2787.228027 
	C2528.945068,2614.118164 2528.945068,2441.559326 2528.944824,2267.000244 
z"/>
<path fill="#2F2F2F" opacity="1.000000" stroke="none" 
	d="
M677.650146,2582.407715 
	C677.502319,2579.195557 677.355347,2576.938965 677.185303,2574.328369 
	C558.171265,2574.328369 439.724457,2574.328369 320.358002,2574.328369 
	C320.358002,2692.990479 320.358002,2811.116943 320.358002,2929.666260 
	C248.883362,2929.666260 178.326904,2929.666260 107.047783,2929.666260 
	C107.047783,2644.956299 107.047783,2360.212646 107.047783,2074.777832 
	C177.672607,2074.777832 248.436005,2074.777832 320.148529,2074.777832 
	C320.148529,2192.910400 320.148529,2311.029541 320.148529,2429.814941 
	C439.544556,2429.814941 557.996033,2429.814941 677.331482,2429.814941 
	C677.331482,2311.597900 677.331482,2193.437744 677.331482,2074.683838 
	C748.999939,2074.683838 819.787720,2074.683838 891.125000,2074.683838 
	C891.125000,2359.655762 891.125000,2644.401611 891.125000,2929.620850 
	C820.202515,2929.620850 749.666809,2929.620850 677.650940,2929.620850 
	C677.650940,2814.280029 677.650940,2698.821533 677.650146,2582.407715 
z"/>
<path fill="#2F2E2E" opacity="1.000000" stroke="none" 
	d="
M3514.000000,2787.778076 
	C3565.967773,2787.778076 3616.935791,2787.778076 3668.473389,2787.778076 
	C3668.473389,2835.275146 3668.473389,2882.127197 3668.473389,2929.570557 
	C3665.750732,2929.752197 3663.197510,2930.071533 3660.644287,2930.071777 
	C3445.985107,2930.094971 3231.325928,2930.114502 3016.666748,2930.059814 
	C2994.774902,2930.054199 2973.715820,2925.567627 2953.542725,2917.021973 
	C2922.672363,2903.945068 2903.572510,2880.527344 2893.366211,2849.066895 
	C2887.973389,2832.443604 2885.236084,2815.430176 2885.010986,2798.042480 
	C2884.613770,2767.392578 2884.375977,2736.738525 2884.364258,2706.086182 
	C2884.303955,2546.425049 2884.263184,2386.764160 2884.430420,2227.103027 
	C2884.451172,2207.492920 2884.801514,2187.803467 2889.751953,2168.577637 
	C2894.609375,2149.713135 2901.344971,2131.753418 2914.205078,2116.673828 
	C2932.793701,2094.877197 2957.138184,2083.072266 2984.710449,2078.375732 
	C3001.351074,2075.541260 3018.453125,2074.283203 3035.350342,2074.261719 
	C3243.009521,2073.995117 3450.668701,2074.088135 3658.328125,2074.088135 
	C3661.571777,2074.088135 3664.815430,2074.088135 3668.548096,2074.088135 
	C3668.548096,2121.841309 3668.548096,2168.701172 3668.548096,2216.488281 
	C3478.583984,2216.488281 3289.075439,2216.488281 3098.950195,2216.488281 
	C3098.950195,2407.182129 3098.950195,2596.949219 3098.950195,2787.778076 
	C3237.217041,2787.778076 3375.108398,2787.778076 3514.000000,2787.778076 
z"/>
<path fill="#2F2E2E" opacity="1.000000" stroke="none" 
	d="
M1696.000000,2930.092773 
	C1519.361572,2930.092773 1343.723267,2930.054932 1168.084839,2930.138672 
	C1145.120483,2930.149658 1123.103516,2925.882568 1101.935669,2917.129639 
	C1069.378418,2903.667480 1050.483643,2878.433594 1040.206543,2845.633789 
	C1033.541260,2824.360840 1032.450806,2802.418213 1032.431030,2780.467529 
	C1032.263550,2595.164062 1032.259766,2409.860352 1032.437012,2224.556885 
	C1032.457642,2202.946289 1033.668823,2181.396240 1039.889648,2160.334473 
	C1051.671021,2120.445557 1076.955444,2094.402832 1116.808472,2082.167480 
	C1138.119751,2075.624512 1159.945312,2074.145508 1181.946655,2074.137207 
	C1390.913086,2074.059326 1599.879395,2074.089600 1808.845825,2074.088623 
	C1811.433838,2074.088623 1814.021851,2074.088623 1817.138672,2074.088623 
	C1817.138672,2121.741943 1817.138672,2168.544678 1817.138672,2216.421387 
	C1627.031372,2216.421387 1437.265259,2216.421387 1246.924805,2216.421387 
	C1246.924805,2407.244873 1246.924805,2596.995850 1246.924805,2787.761719 
	C1437.152710,2787.761719 1626.927490,2787.761719 1817.186279,2787.761719 
	C1817.186279,2835.576416 1817.186279,2882.376709 1817.186279,2930.092773 
	C1776.810669,2930.092773 1736.905273,2930.092773 1696.000000,2930.092773 
z"/>
<path fill="#2F2F2F" opacity="1.000000" stroke="none" 
	d="
M3922.459473,2076.076416 
	C3941.983887,2075.398438 3960.609131,2074.185547 3979.235107,2074.172852 
	C4180.187500,2074.035645 4381.140137,2074.087158 4582.092773,2074.087158 
	C4586.040039,2074.087158 4589.987305,2074.087158 4594.486328,2074.087158 
	C4594.486328,2121.624512 4594.486328,2168.474854 4594.486328,2216.243164 
	C4404.759277,2216.243164 4215.303711,2216.243164 4026.094971,2216.243164 
	C4023.982422,2224.174561 4023.436768,2416.282715 4025.361816,2430.169434 
	C4167.061035,2430.169434 4308.877930,2430.169434 4450.449219,2430.169434 
	C4452.873535,2438.323975 4453.788086,2545.461914 4451.824707,2573.367188 
	C4309.815430,2573.367188 4167.724121,2573.367188 4024.758789,2573.367188 
	C4024.758789,2692.567627 4024.758789,2810.710205 4024.758789,2929.472168 
	C3953.090820,2929.472168 3882.296143,2929.472168 3810.887939,2929.472168 
	C3810.700439,2926.912354 3810.349365,2924.354004 3810.349121,2921.795898 
	C3810.323975,2689.184082 3810.265869,2456.572266 3810.409668,2223.960449 
	C3810.425537,2198.291260 3812.515625,2172.875732 3821.918213,2148.427002 
	C3835.112061,2114.120850 3859.898926,2092.954590 3894.364014,2082.371826 
	C3903.235352,2079.647705 3912.484863,2078.156250 3922.459473,2076.076416 
z"/>
<path fill="#D80201" opacity="1.000000" stroke="none" 
	d="
M1382.000000,2566.020508 
	C1351.062500,2566.020508 1321.125000,2566.020508 1290.580078,2566.020508 
	C1290.580078,2517.222168 1290.580078,2469.123047 1290.580078,2420.501465 
	C1434.619019,2420.501465 1578.387939,2420.501465 1722.621582,2420.501465 
	C1722.621582,2468.876221 1722.621582,2516.752441 1722.621582,2566.020508 
	C1609.286865,2566.020508 1496.143433,2566.020508 1382.000000,2566.020508 
z"/>
<path fill="#D80201" opacity="1.000000" stroke="none" 
	d="
M3492.000000,2566.019775 
	C3379.134521,2566.019775 3267.268799,2566.019775 3154.867676,2566.019775 
	C3154.867676,2517.086182 3154.867676,2468.986328 3154.867676,2420.435059 
	C3299.085938,2420.435059 3442.846436,2420.435059 3587.134766,2420.435059 
	C3587.134766,2468.904053 3587.134766,2517.004395 3587.134766,2566.019775 
	C3555.459961,2566.019775 3524.229980,2566.019775 3492.000000,2566.019775 
z"/>
<path fill="#FEFEFE" opacity="1.000000" stroke="none" 
	d="
M2528.944824,2268.000488 
	C2528.945068,2441.559326 2528.945068,2614.118164 2528.945068,2787.228027 
	C2409.864990,2787.228027 2291.720459,2787.228027 2172.956055,2787.228027 
	C2172.956055,2597.206299 2172.956055,2407.459961 2172.956055,2217.104736 
	C2291.374512,2217.104736 2409.494629,2217.104736 2528.944824,2217.104736 
	C2528.944824,2233.916504 2528.944824,2250.458496 2528.944824,2268.000488 
z"/>
</svg>