<svg version="1.1" id="Layer_1" xmlns="http://www.w3.org/2000/svg" xmlns:xlink="http://www.w3.org/1999/xlink" x="0" y="0" viewBox="0 0 140.6 26.6" xml:space="preserve"><style type="text/css">.st0{fill:#7a303f}.st1{fill:#fff}.st3{fill:#328ec3}</style><g id="Layer_2_1_"><g id="Layer_1-2"><path class="st0" d="M27.3 7.2l-2.9.1c-1.1 0-1.6.2-1.9.6-.1.2-.3.4-.3.6 0 .1-.1.2-.2.2s-.2-.1-.2-.3.4-2.1.4-2.3.1-.4.2-.4c.3.2.6.2.9.3.6.1 1.3.1 1.9.1h7.9c.4 0 .9 0 1.3-.1l.5-.1c.1 0 .2.1.2.4v2.3c0 .2-.1.3-.2.3s-.2-.1-.2-.4v-.2c0-.5-.5-1.1-2.3-1.1H30v7.6c0 1.7 0 3.2.1 4 .1.5.2.9.7 1 .3 0 .7.1 1 .1.2 0 .3.1.3.2s-.1.2-.4.2c-1.3 0-2.6-.1-3.1-.1s-1.8.1-2.5.1c-.2 0-.4-.1-.4-.2s.1-.2.3-.2c.2 0 .5 0 .7-.1.4-.1.5-.4.6-1 .1-.8.1-2.3.1-4l-.1-7.6zm23.6 4.9s.1 0 .1-.1V7.5c0-.6-.2-.8-.8-1-.2-.1-.5-.1-.7-.1-.2 0-.3-.1-.3-.2s.1-.2.4-.2H55c.3 0 .4 0 .4.2s-.1.2-.3.2c-.2 0-.4 0-.6.1-.5.1-.7.3-.7 1v7.3c0 1.7 0 3.2.1 4 .1.5.2.9.8 1 .3.1.7.1 1 .1.2 0 .3.1.3.2s-.2.2-.4.2c-1.2 0-2.5-.1-3.1-.1s-1.8.1-2.5.1c-.3 0-.4-.1-.4-.2s.1-.2.3-.2c.2 0 .5 0 .7-.1.4-.1.5-.4.6-1 .1-.8.1-2.2.1-3.9v-1.5c0-.1 0-.1-.1-.1h-7.4c-.1 0-.1 0-.1.1v1.4c0 1.7 0 3.1.1 4 .1.5.2.9.8 1 .3 0 .7.1 1 .1.2 0 .3.1.3.2s-.2.2-.4.2c-1.3 0-2.6-.1-3.2-.1s-1.7.1-2.5.1c-.2 0-.4-.1-.4-.2s.1-.2.3-.2c.2 0 .5 0 .7-.1.4-.1.5-.4.6-1 .1-.8.1-2.3.1-4V7.5c0-.6-.2-.8-.8-1-.3-.1-.5-.1-.8-.1-.2 0-.3-.1-.3-.2s.2-.2.4-.2H45c.3 0 .4 0 .4.2s-.4.2-.6.2c-.2 0-.4 0-.5.1-.5.1-.7.3-.7 1V12c0 .1.1.1.1.1h7.2zm8.9 1c0-3.2 2.2-7.3 8.1-7.3 4.9 0 7.9 2.7 7.9 7s-3.1 7.7-8.1 7.7c-5.7-.1-7.9-4.1-7.9-7.4zm13.1.4c0-4.1-2.5-6.7-5.6-6.7-2.2 0-4.7 1.2-4.7 5.8 0 3.8 2.2 6.9 5.9 6.9 1.3-.1 4.4-.7 4.4-6zm8.7-2v-4c0-.6-.2-.8-.8-1-.3-.1-.5-.1-.8-.1-.2 0-.3-.1-.3-.2s.1-.2.4-.2h5.6c1.3-.1 2.5.2 3.7.8.8.6 1.3 1.5 1.4 2.6 0 1.4-.8 2.6-2.7 4.1 1.7 2.1 3.1 3.8 4.2 5 .5.6 1.3 1.1 2.1 1.2h.5c.1 0 .2.1.2.2s-.1.2-.4.2h-1.8c-.7.1-1.5-.1-2.1-.4-1.1-.7-2-1.7-2.6-2.8-.8-1-1.6-2.3-1.8-2.6-.1-.1-.2-.1-.3-.1h-1.8c-.1 0-.2.1-.2.1v.3c0 1.7 0 3.2.1 4 .1.5.2.9.8 1 .3 0 .7.1 1 .1.1 0 .2.1.2.2s-.2.2-.4.2c-1.1 0-2.7-.1-3-.1s-1.6.1-2.4.1c-.2 0-.4-.1-.4-.2s.1-.2.3-.2c.2 0 .5 0 .7-.1.4-.1.5-.4.6-1 .1-.8.1-2.3.1-4l-.1-3.1zm2.5 1.4c0 .2 0 .3.2.3.5.1 1 .2 1.5.2.5.1 1 0 1.4-.3.9-.7 1.3-1.7 1.2-2.8 0-2.6-1.8-3.3-3-3.3-.4 0-.8 0-1.2.1-.1 0-.2.1-.2.3l.1 5.5zM97.5 20c-.3-.1-.4-.2-.4-.6 0-1 .1-2.2.1-2.5s.1-.5.2-.5.2.2.2.3c0 .3.1.7.2 1 .5 1.2 1.8 2 3.1 1.9 1.3.1 2.5-.8 2.7-2.2v-.2c0-.8-.2-1.6-1.9-2.6l-1.1-.7c-2.3-1.3-3-2.6-3-4.2 0-2.3 2.2-3.8 4.9-3.8.9 0 1.9.1 2.8.3.2 0 .3.1.3.2s-.1.8-.1 2.2c0 .4-.1.6-.2.6s-.3-.1-.3-.3c0-.5-.2-.9-.5-1.2-.5-.6-1.3-.9-2.2-.9-1.4 0-2.6.7-2.6 2 0 .8.3 1.5 2 2.5l.8.4c2.6 1.4 3.3 2.8 3.3 4.5 0 1.4-.7 2.8-1.9 3.5-1 .6-2.1.8-3.2.8-1.1.1-2.2-.1-3.2-.5zm14.7-8.5v-4c0-.6-.2-.8-.8-1-.3-.1-.5-.1-.8-.1-.2 0-.3-.1-.3-.2s.2-.2.4-.2h8.1c.3 0 .5-.1.8-.1.1 0 .2-.1.3-.1.1 0 .1.1.1.2-.1.4-.1.8-.2 1.2 0 .2-.1 1-.1 1.2s-.1.3-.2.3-.2-.1-.2-.2c0-.2-.1-.4-.2-.6-.2-.3-.3-.6-1.3-.7-.3 0-2.6-.1-3-.1-.1 0-.1.1-.1.2v4.6c0 .1 0 .2.1.2h3.4c.3 0 .7-.1.9-.3.2-.1.2-.2.3-.2s.2.1.2.2 0 .4-.2 1.4c0 .4-.1 1.1-.1 1.3s0 .4-.2.4-.2-.1-.2-.1c0-.2 0-.5-.1-.7-.1-.4-.3-.7-1.1-.7-.3 0-2.6-.1-3-.1-.1 0-.1.1-.1.2v4.3c0 1.3.6 1.6 2.6 1.6.6 0 1.2-.1 1.8-.2.5-.2.7-.6.8-1.4 0-.2.1-.3.2-.3s.2.2.2.4c0 .7-.1 1.4-.3 2.1-.1.5-.3.5-1 .5-1.5 0-2.6 0-3.6-.1s-1.7 0-2.2 0h-2.4c-.4 0-.4-.1-.4-.2s.1-.2.3-.2c.2 0 .5 0 .7-.1.4-.1.5-.4.6-1 .1-.8.1-2.3.1-4l.2-3.4zm15.6 6.1c0 1.5.3 1.9.7 2 .3.1.7.1 1 .1.2 0 .3.1.3.2s-.2.2-.4.2c-1.3 0-2.2-.1-2.5-.1-.2 0-1.1.1-2.1.1-.3 0-.4 0-.4-.2s.1-.2.3-.2c.3 0 .6 0 .9-.1.5-.1.6-.6.6-2.3l.2-11.1c0-.4.1-.6.3-.6s.5.3.8.6l6 6 4.2 4.2h.1l-.2-8.3c0-1.1-.2-1.5-.7-1.7-.3-.1-.7-.1-1-.1-.2 0-.3-.1-.3-.2s.2-.2.5-.2h4.4c.3 0 .4 0 .4.2s-.1.2-.3.2c-.2 0-.4 0-.6.1-.5.2-.7.5-.7 1.5l-.3 11.9c0 .4-.2.6-.3.6-.3 0-.6-.2-.8-.4-1.2-1.1-3.6-3.4-5.7-5.4s-4.2-4.3-4.5-4.6h-.1l.2 7.6zM.7 11.7h13.6c.4 2.7 0 5.5-1 8-2.2 4.9-5.7 6.1-5.7 6.1s-3.9-1-6-6C.7 17.2.4 14.4.7 11.7zM7.4.3v1.2l-4.7-.2v1.5h-1L2 4.6.8 5l.8 1.7-1.4.8.9 1.7h10V8.1l-1.6-.7.5-.6h.5l1.7 1.3s.1.9.4.9h.9s.2.3.4.3.5-.6.5-.6l.1-.7.1-.4-.8-.6s-.4.1-.5 0l-1.5-1.3 1.4-.8.6-.1s.5-.6.6-.7c.1-.1.3-.3.5-.4l-.8-.8c-.2-.1-.3-.5-.4-.5s-.9.1-.9.2-.4.8-.4.8l-1.3.6-.7-.4.5-.2v-.6l-.9-.1-.1-.1c0-.1 0-.1.1-.2h1.1c0-.2.1-.4.1-.7l.3-.3V.9H8.7L7.4.3"/><path class="st1" d="M7.9 1.1v.5l-.5.7.5 3.3-2.1 3.7h2V8.1l1.8-1.9h1l2 1.6v.5s.1.1.2.1h.4c.1.1.2.1.3.1.1 0 .3-.6.3-.6s0-.5-.3-.6l-.5-.1-2-1.5v-1s-1.5-.8-1.5-.9v-.3l.9-.3-.6-.3-.3-.2v-.5l.3-.2h.6l.6-.6h-1l-.8.5H9l-.3-.2.1-.2.2.1h.5l.1-.2h-1l-.7-.3z"/><path class="st1" d="M9 7.9l-.6.6h2.1zm-5.9-1l-2 .9.5.9h1zm2.6-.7h1.1L5.4 8.7h-.9c0-.1 1.2-2.5 1.2-2.5zm-1 .3l-.7.2-.9 2.5h.6zm-3-1.1l.7 1.1c.7-.3 1.5-.5 2.2-.7L7 5.4v-.7c-1 0-2 0-3 .2-.8.1-2.3.5-2.3.5zm.8-2l.3 1c.7-.2 1.4-.3 2.1-.4h2.2L7 3.7s-1.4-.3-2.2-.3H2.5zm.9-1.6v.9s1.2 0 1.9.1l1.5.2v-.8L5 1.9c-.7-.1-1.6-.1-1.6-.1z"/><path class="st0" d="M.7 9.6h13.7v1H.7zm9.4-4.9h.4v1h-.4zm-.8 0h.4v1h-.4zm-.9 0h.4v1h-.4z"/><defs><path id="SVGID_1_" d="M.8 11.2h13.4c.3 2.7-.1 5.3-.9 7.9-2 5-5.7 6.1-5.7 6.1-2.9-1.2-5.1-3.7-6-6.7-.8-2.3-1-4.8-.8-7.3z"/></defs><clipPath id="SVGID_2_"><use xlink:href="#SVGID_1_" overflow="visible"/></clipPath><g clip-path="url(#SVGID_2_)"><path class="st3" d="M1.1 13H14v.6H1.1z"/><path class="st3" d="M6.3 13.3h2.6V16H6.3z"/><path class="st3" d="M8.8 15.9h2.6v2.7H8.8zm-5.1 0h2.6v2.7H3.7zm5.1 5.4h2.6V24H8.8zm-5.1 0h2.6V24H3.7zm7.7-8H14V16h-2.6zm-10.3 0h2.6V16H1.1zm5.2 5.3h2.6v2.7H6.3zm0 5.4h2.6v2.7H6.3zm5.1-5.4H14v2.7h-2.6zm-10.3 0h2.6v2.7H1.1z"/></g><path d="M.7 11.7h13.6c.4 2.7 0 5.5-1 8-2.2 4.9-5.7 6.1-5.7 6.1s-3.9-1-6-6C.7 17.2.4 14.4.7 11.7z" fill="none" stroke="#7a303f" stroke-width=".68" stroke-miterlimit="10"/><path class="st1" d="M11.5 4.5v.6l1.6-.7c.1 0 .2 0 .2.1.2 0 .3 0 .5-.1 0 0 .1-.3.1-.4.1 0 .1-.1.2-.1 0 0 0-.4-.2-.4h-.4s-.3-.3-.4-.3c-.1.1-.1.2-.2.4l-.2.3-1.2.6z"/></g></g></svg>